<?xml version="1.0" encoding="UTF-8" standalone="no"?>
<svg
   t="1735831114747"
   class="icon"
   viewBox="0 0 12800 12800"
   version="1.1"
   p-id="16900"
   width="600"
   height="600"
   id="svg1"
   sodipodi:docname="logo.svg"
   xml:space="preserve"
   inkscape:version="1.4 (e7c3feb1, 2024-10-09)"
   inkscape:export-filename="logo---.jpg"
   inkscape:export-xdpi="96"
   inkscape:export-ydpi="96"
   xmlns:inkscape="http://www.inkscape.org/namespaces/inkscape"
   xmlns:sodipodi="http://sodipodi.sourceforge.net/DTD/sodipodi-0.dtd"
   xmlns="http://www.w3.org/2000/svg"
   xmlns:svg="http://www.w3.org/2000/svg"><defs
     id="defs1"><linearGradient
       id="swatch23"
       inkscape:swatch="solid"><stop
         style="stop-color:#813d74;stop-opacity:1;"
         offset="0"
         id="stop23" /></linearGradient></defs><sodipodi:namedview
     id="namedview1"
     pagecolor="#ffffff"
     bordercolor="#000000"
     borderopacity="0.25"
     inkscape:showpageshadow="2"
     inkscape:pageopacity="0.0"
     inkscape:pagecheckerboard="0"
     inkscape:deskcolor="#d1d1d1"
     showgrid="false"
     showguides="false"
     inkscape:zoom="0.27083333"
     inkscape:cx="302.76923"
     inkscape:cy="300.92308"
     inkscape:window-width="1120"
     inkscape:window-height="888"
     inkscape:window-x="1667"
     inkscape:window-y="103"
     inkscape:window-maximized="0"
     inkscape:current-layer="svg1"><inkscape:grid
       id="grid8"
       units="px"
       originx="0"
       originy="0"
       spacingx="21.333333"
       spacingy="21.333333"
       empcolor="#0099e5"
       empopacity="0.30196078"
       color="#0099e5"
       opacity="0.14901961"
       empspacing="5"
       enabled="true"
       visible="false" /></sodipodi:namedview><path
     d="M 11200,12760.615 H 1600 A 1600,1595.0769 0 0 1 0,11165.538 V 3987.6922 h 12800 v 7177.8458 a 1600,1595.0769 0 0 1 -1600,1595.077 z M 0,1595.0769 A 1600,1595.0769 0 0 1 1600,0 h 9600 a 1600,1595.0769 0 0 1 1600,1595.0769 V 3190.1537 H 0 Z m 5800,797.5384 a 600.20004,598.35325 0 1 0 -0.4,-1196.7064 600.20004,598.35325 0 0 0 0.4,1196.7064 z m -2000,0 a 600.20004,598.35325 0 1 0 -0.4,-1196.7064 600.20004,598.35325 0 0 0 0.4,1196.7064 z m -2000,0 a 600.20004,598.35325 0 1 0 -0.4,-1196.7064 600.20004,598.35325 0 0 0 0.4,1196.7064 z"
     p-id="16901"
     id="path1"
     style="display:none;stroke-width:1" /><path
     style="display:none;fill:#dd1829;fill-rule:evenodd;stroke-width:0.0469999;paint-order:markers fill stroke"
     d="M 62.020244,596.20248 C 31.896022,591.15635 6.9029398,565.4028 1.7813241,534.13065 0.75797465,527.88216 0.01691058,453.26457 0.01069292,355.84615 L 0,188.30769 h 300 300 l -0.0111,167.53846 c -0.006,100.75946 -0.73283,171.9536 -1.82243,178.61539 -5.22098,31.921 -30.06037,56.64892 -62.19007,61.91099 -13.22801,2.16642 -460.967318,2.00577 -473.956563,-0.17003 z"
     id="path2"
     transform="scale(21.333333)" /><path
     style="display:inline;fill:#ff0000;fill-rule:nonzero;stroke-width:0.0469999;paint-order:markers fill stroke;fill-opacity:1"
     d="M 0.01069292,112.15385 C 0.01657403,91.592308 0.81335815,69.933515 1.7813241,64.023198 7.0433869,31.893484 31.771305,7.0540924 63.692308,1.8331187 78.378218,-0.56889702 521.32994,-0.61747471 535.97681,1.7813241 c 32.1297,5.2620628 56.96909,29.9899809 62.19007,61.9109839 0.99646,6.092307 1.81654,27.9 1.82243,48.461542 L 600,149.53846 H 300 0 Z M 98.577044,108.43117 C 121.38408,95.355718 115.24755,61.054135 89.221246,56.134678 80.602108,54.505499 72.537185,56.871921 65.424138,63.117258 40.05711,85.389805 69.226026,125.25834 98.577044,108.43117 Z m 93.415496,0.27427 c 18.79296,-10.562236 19.36726,-34.984714 1.14262,-48.591368 -7.10091,-5.301596 -22.88587,-5.272375 -30.0767,0.05568 -13.30131,9.855604 -17.03597,24.456323 -9.62733,37.638214 7.71867,13.733514 24.8842,18.584504 38.56141,10.897474 z m 95.56937,-1.02326 C 296.7129,100.84997 300,94.591337 300,84 300,68.378027 289.64801,57.291395 273.82983,55.972645 c -30.21043,-2.518623 -42.09076,39.849714 -15.0411,53.640435 7.8128,3.9832 22.13963,3.02176 28.77318,-1.9309 z"
     id="path3"
     transform="scale(21.333333)" /><path
     style="display:none;fill:#dd1829;fill-rule:evenodd;stroke-width:0.0469999;paint-order:markers fill stroke"
     d="m 125.53846,596.50986 -69.230768,-1.12524 -12,-5.75956 C 29.258594,582.40206 16.320569,569.45047 8.7088634,553.9889 2.9709059,542.33345 2.8264434,541.39841 1.5752407,507.8155 0.87285545,488.96313 0.23108677,409.36154 0.14908818,330.92308 L 0,188.30769 h 300.21397 300.21397 l -0.89404,173.07693 c -0.99941,193.47773 -0.1824,181.95328 -14.41102,203.26089 -4.99885,7.48584 -11.14538,13.63237 -18.63122,18.63122 -20.64827,13.78838 -10.45196,13.09026 -200.9532,13.75896 -93.92308,0.32968 -201.92308,0.093 -240,-0.52583 z"
     id="path4"
     transform="scale(21.333333)" /><path
     style="display:inline;fill:#ff0000;fill-rule:evenodd;stroke-width:1.00266;paint-order:markers fill stroke;fill-opacity:1;opacity:1"
     d="m 2185.8462,12801.344 -1024.0001,-21.455 -239.51498,-126.345 C 611.93247,12489.807 343.39942,12211.853 188.10582,11893.561 72.528997,11656.673 62.031909,11599.424 34.736575,11057.12 18.621152,10736.939 4.2127477,9021.9801 2.7179008,7246.1013 L 0,4017.2307 h 6404.0921 6404.0919 l -17.926,3725.6201 c -16.446,3417.9352 -23.656,3743.6702 -87.303,3944.1892 -141.537,445.909 -438.211,778.633 -878.658,985.426 -217.991,102.347 -257.118,106.779 -1170.759,132.59 -1087.5569,30.725 -6946.7225,28.157 -8467.6918,-3.712 z"
     id="path5" /><path
     d="M 8491.6469,6013.056 H 4430.799 c -670.0076,0 -1218.2546,548.2458 -1218.2546,1218.2539 v 2436.5092 c 0,670.0089 548.247,1218.2539 1218.2546,1218.2539 h 4060.8479 c 670.0073,0 1218.2544,-548.245 1218.2544,-1218.2539 V 7231.3099 c 0,-670.0081 -548.2471,-1218.2539 -1218.2544,-1218.2539 z M 5649.0532,10073.903 V 6825.2257 L 7679.4773,8449.565 Z"
     fill="#444444"
     p-id="18938"
     id="path1-3"
     style="fill:#ffffff;fill-opacity:1;stroke-width:0.999998" /></svg>
